HIERARCHY
ROOT Hips
{
  OFFSET -278.467 93.5854 -237.511
  CHANNELS 6 Xposition Yposition Zposition Zrotation Xrotation Yrotation
  JOINT ToSpine
  {
    OFFSET -0.0105055 1.38907 -7.13956
    CHANNELS 3 Zrotation Xrotation Yrotation
    JOINT Spine
    {
      OFFSET 0.0105055 10 1
      CHANNELS 3 Zrotation Xrotation Yrotation
      JOINT Spine1
      {
        OFFSET 0 12 1.60637
        CHANNELS 3 Zrotation Xrotation Yrotation
        JOINT Neck
        {
          OFFSET 0 27 2.26658
          CHANNELS 3 Zrotation Xrotation Yrotation
          JOINT Head
          {
            OFFSET 0 9 2.12705
            CHANNELS 3 Zrotation Xrotation Yrotation
            End Site
            {
              OFFSET 0 11 2
            }
          }
        }
        JOINT LeftShoulder
        {
          OFFSET 8 19.6109 2.86452
          CHANNELS 3 Zrotation Xrotation Yrotation
          JOINT LeftArm
          {
            OFFSET 12 1 0.681055
            CHANNELS 3 Zrotation Xrotation Yrotation
            JOINT LeftForeArm
            {
              OFFSET 19 0 -1.52608
              CHANNELS 3 Zrotation Xrotation Yrotation
              JOINT LeftHand
              {
                OFFSET 23 0 0
                CHANNELS 3 Zrotation Xrotation Yrotation
                End Site
                {
                  OFFSET 10 0 0
                }
              }
            }
          }
        }
        JOINT RightShoulder
        {
          OFFSET -8 19.6109 2.86452
          CHANNELS 3 Zrotation Xrotation Yrotation
          JOINT RightArm
          {
            OFFSET -12 1 0.681055
            CHANNELS 3 Zrotation Xrotation Yrotation
            JOINT RightForeArm
            {
              OFFSET -19 0 -1.52608
              CHANNELS 3 Zrotation Xrotation Yrotation
              JOINT RightHand
              {
                OFFSET -23 0 0
                CHANNELS 3 Zrotation Xrotation Yrotation
                End Site
                {
                  OFFSET -10 0 0
                }
              }
            }
          }
        }
      }
    }
  }
  JOINT LeftUpLeg
  {
    OFFSET 9 -7.17245 0
    CHANNELS 3 Zrotation Xrotation Yrotation
    JOINT LeftLeg
    {
      OFFSET 0 -44.1113 0
      CHANNELS 3 Zrotation Xrotation Yrotation
      JOINT LeftFoot
      {
        OFFSET 0 -36.1829 0
        CHANNELS 3 Zrotation Xrotation Yrotation
        JOINT LeftToeBase
        {
          OFFSET 0 -4.84184 13
          CHANNELS 3 Zrotation Xrotation Yrotation
          End Site
          {
            OFFSET 0 1 6
          }
        }
      }
    }
  }
  JOINT RightUpLeg
  {
    OFFSET -9 -7.17245 0
    CHANNELS 3 Zrotation Xrotation Yrotation
    JOINT RightLeg
    {
      OFFSET 0 -44.0551 0
      CHANNELS 3 Zrotation Xrotation Yrotation
      JOINT RightFoot
      {
        OFFSET 0 -36.1469 0
        CHANNELS 3 Zrotation Xrotation Yrotation
        JOINT RightToeBase
        {
          OFFSET 0 -4.92256 13
          CHANNELS 3 Zrotation Xrotation Yrotation
          End Site
          {
            OFFSET 0 1 6
          }
        }
      }
    }
  }
}
MOTION
Frames:	13
Frame Time:	0.0333333
-278.467 93.5854 -237.511 -4.45463 12.1514 -134.993 0 0 0 12.0495 6.70262 8.28594 -7.67749 0.284148 9.89208 5.85391 -9.16032 -6.90646 -4.07871 1.62806 -4.37312 -11.4669 0.952853 -1.60321 -51.8338 18.0899 50.7054 20.488 -11.9698 -119.033 -25.7472 1.08541 -4.74665 29.9052 3.2707 5.57374 7.18754 -6.38236 -21.9446 -5.38204 -2.45015 114.407 0.338967 0.0110193 3.72386 8.92225 -17.5426 8.85379 8.32095e-007 41.4206 -19.8943 9.86442 -4.26582 0.368294 1.82264 -8.0272 -7.55633 -7.8175 11.3341 -9.87375 8.03719e-007 68.5733 9.75006 -20.1543 -8.39249 -1.49407 3.94431 -14.8286 -5.768 
-273.881 95.6271 -232.586 -5.28156 11.3587 -134.401 0 0 0 16.9825 4.2609 10.4355 -15.1338 3.85626 13.5173 7.15569 -8.39156 -10.0829 -3.76825 3.22111 -7.11008 -10.1304 0.493951 0.672205 -45.1267 17.1052 49.7138 17.7224 -12.2638 -123.611 -24.3664 1.23583 -5.71953 25.0933 3.18607 6.65428 8.69132 -1.00343 -22.3594 -6.87458 -3.25646 115.228 1.89217 0.0612108 3.70536 6.3926 -15.0295 8.29093 -0.910713 24.3937 -22.73 12.5763 15.4663 -1.71456 1.45451 -17.1512 -3.23874 -4.38993 17.9524 -6.49526 -2.12088e-007 56.2436 11.4681 -20.9234 -9.26702 -1.71475 4.26983 -16.2214 -5.06148 
-268.589 96.9079 -227.764 -3.92903 8.45278 -132.784 0 0 0 17.4297 0.418924 10.4477 -18.0829 4.21734 13.4434 7.84319 -8.54584 -10.4344 -2.38665 6.69838 -7.52633 -10.2352 0.701056 -0.492535 -43.7997 11.1306 51.1519 18.3583 -13.8255 -125.758 -22.0469 1.11684 -5.7285 22.4844 3.3306 8.0216 12.8761 5.85131 -21.1332 -9.29341 -4.0892 113.546 2.81095 0.155246 6.3211 5.57684 -17.6063 6.61464 -3.1706 15.2753 -21.3211 9.37322 15.751 -1.2994 0.519058 -6.63031 -0.454954 -1.16287 18.2275 -7.4733 -2.91761e-008 45.0547 8.12462 -21.2825 -13.653 -2.57703 4.07435 -15.2367 -2.66222 
-262.817 97.0137 -222.285 -1.83274 4.92588 -130.401 0 0 0 16.8937 -2.39703 9.27739 -19.2899 4.47207 12.3191 4.02446 -13.5153 -9.73946 1.00028 8.68686 -8.67794 -16.2745 1.12485 -1.37901 -38.1933 10.6529 41.6241 18.466 -13.3749 -124.711 -18.6986 0.662916 -4.02485 23.872 3.30404 7.43383 19.6567 8.44917 -24.1481 -8.70602 -3.69497 112.824 1.54758 0.117034 8.64887 4.49054 -24.8186 7.34993 -1.67537 22.8372 -21.4442 12.9482 8.76614 -0.996679 0.55314 -7.37789 -0.381475 0.402791 12.6334 -11.9225 8.05966e-008 38.9205 2.2832 -21.2351 -12.0319 -2.26356 4.59361 -17.4914 -4.16077 
-256.285 95.7853 -216.369 -1.5839 3.4628 -128.996 0 0 0 15.2663 0.0483306 7.03337 -19.5104 3.80403 10.5624 1.41286 -20.0036 -8.96768 2.40657 9.33661 -8.76301 -22.8642 1.97653 -3.26549 -33.0344 11.1892 26.8739 18.5028 -11.1914 -120.112 -15.6858 0.490337 -3.55859 30.5383 4.4415 8.59552 25.7447 7.13342 -30.2266 -13.6878 -4.82096 109.038 -2.19286 -0.104315 5.44639 5.87617 -30.954 8.69041 3.03298e-007 41.7381 -22.7906 14.829 -3.55907 0.463307 0.649866 -8.19924 -0.641532 0.499708 5.22072 -12.877 -1.7041e-007 38.784 -2.90082 -26.825 -10.1107 -2.41696 4.12018 -15.7101 -6.94432 
-249.736 94.0848 -210.236 -4.01476 3.41607 -129.685 0 0 0 9.29726 7.47395 3.83197 -14.2456 -0.637266 6.621 1.26147 -23.4072 -5.39156 1.70225 10.0607 -5.28789 -27.8324 2.82403 -4.80515 -28.5555 9.70719 11.8701 16.6642 -8.94068 -117.438 -15.7925 0.139219 -1.00375 33.7829 5.04285 9.11234 35.33 8.40891 -33.6906 -15.1509 -1.44617 95.3249 -5.13202 -0.351005 7.82013 9.17146 -31.2286 11.407 5.86914e-007 61.0995 -22.5618 15.5185 -13.0763 1.78938 0.830812 -9.39011 -1.31184 -1.96897 -0.248811 -9.94786 -7.50823e-008 42.7684 -3.40411 -26.6753 -10.5349 -2.50433 6.4015 -27.329 -8.90006 
-243.378 91.8069 -204.321 -7.14131 2.77482 -131.25 0 0 0 3.41819 11.8902 1.21162 -10.5574 -2.87917 2.95371 2.77868 -21.0522 -0.991519 1.35647 7.40755 -0.982655 -28.6635 3.36303 -6.15492 -25.0471 6.56387 -6.13042 15.7547 -8.48118 -117.6 -16.456 0.0929249 -0.642621 33.9831 3.91211 6.24743 43.049 9.27674 -35.8505 -21.5031 5.19666 77.0527 -0.839422 -0.0492068 6.70955 12.8608 -27.6079 15.8134 1.39605e-006 77.0926 -20.8121 17.7548 -12.6231 1.97945 0.772356 -11.1553 -0.214129 -5.91369 -6.15362 -6.0761 1.25241e-007 49.7184 -1.5333 -21.974 -19.9331 -3.9079 5.78954 -23.2708 -6.51249 
-237.649 90.1463 -198.901 -5.21482 2.52296 -131.545 0 0 0 1.09638 10.7366 -2.84062 -7.27637 -2.86736 -1.85157 8.18738 -20.4555 3.95245 0.570995 5.9516 4.43625 -24.9269 2.72354 -5.22947 -25.8535 0.723079 -29.8867 17.6978 -8.87227 -115.796 -16.3581 0.00900958 -0.0626845 34.0228 2.89774 3.71849 46.702 8.06568 -39.2105 -22.6795 12.9721 61.7567 1.86727 0.102072 6.25724 18.6404 -23.7175 18.5858 -3.77111e-006 86.7611 -17.9807 34.703 -1.68224 0.525652 2.1819 -28.6329 9.11317 -4.80857 -15.5988 -5.53836 1.64234e-008 54.9233 -2.07111 -20.6344 -22.8596 -4.21559 4.01445 -15.1932 -6.65561 
-233.277 90.6044 -193.942 -5.769 4.79156 -131.165 0 0 0 -1.84136 8.90645 -7.42419 -3.33611 1.18158 -7.40018 13.1622 -16.9852 8.51362 -1.38545 3.23 10.2203 -18.1325 2.5833 -6.91171 -33.3726 -4.34954 -46.2381 23.7734 -10.1558 -111.816 -14.8456 0.109905 -0.843582 31.0684 1.65053 0.941409 48.7394 8.3805 -45.4572 -20.0287 13.1724 57.9894 2.40637 0.164162 7.80419 20.3317 -12.7085 13.1975 2.65864e-005 87.7033 -20.7797 29.1467 -3.21411 0.835823 1.56683 -24.2369 4.45951 -3.22 -18.2588 -3.81961 1.84246e-007 53.3135 -3.20476 -17.3017 -17.5549 -2.69147 3.40532 -12.4231 -5.18344 
-229.402 92.6327 -188.439 -7.56602 6.33235 -131.679 0 0 0 -7.17468 10.4981 -11.5694 2.62224 1.83211 -13.3271 14.8698 -11.9062 12.7256 -3.25216 1.71534 15.6586 -8.85541 2.32589 -10.6961 -37.7645 -8.30718 -52.8786 24.4319 -9.19041 -109.37 -14.1699 0.412872 -3.32093 24.3153 0.342968 -2.38083 49.833 9.86882 -49.7259 -19.6743 11.3898 61.0867 4.74235 0.374352 9.02181 15.9483 -0.931117 4.81883 -9.8962e-007 79.8783 -26.7888 18.0228 -5.41581 0.85951 1.44333 -19.1954 -1.89146 -2.66678 -17.2933 0.263705 1.69858e-007 44.5823 -3.20128 -19.096 -4.94063 -0.831537 3.99398 -15.1235 -7.14039 
-225.657 95.8379 -181.768 -5.30105 7.4311 -135.183 0 0 0 -10.9165 6.52977 -13.6002 11.9279 8.82024 -17.5493 13.7369 -15.3302 17.6993 -4.5085 5.89034 19.8742 0.365119 1.10249 -9.99885 -38.276 -10.5088 -63.4085 24.6168 -5.57228 -101.965 -12.0069 0.261538 -2.48654 18.4331 -0.500913 -5.5056 45.8104 8.38703 -49.7543 -18.1378 8.34758 66.0979 5.5307 0.412558 8.52551 10.5484 6.28704 -0.498535 -6.89401e-007 67.5436 -27.0538 17.0486 -6.21368 0.932231 1.45329 -18.2908 -2.62914 -0.696445 -15.6816 6.04665 -0.261265 25.0346 0.946298 -15.2369 14.166 1.90434 3.796 -14.1882 -8.14337 
-222.119 97.2691 -175.369 -1.60727 4.86989 -141.152 0 0 0 -10.4294 4.61354 -14.1277 15.3334 4.2421 -17.8715 14.5849 -14.2367 20.625 -8.62887 10.6839 24.1602 7.26743 0.235551 -7.74883 -35.4597 -9.06266 -66.4512 25.6259 -1.44827 -93.0162 -12.2538 0.519531 -4.837 16.2909 -0.32081 -4.89587 39.74 5.2342 -53.9855 -11.0549 5.01017 65.9153 5.21118 0.457131 10.0196 4.28852 7.18183 -1.98791 -1.60416e-006 56.1311 -22.4493 12.7395 -7.01003 0.783518 1.43368 -18.1187 -2.49024 -1.76814 -17.7296 0.359812 -2.31649 10.1139 30.8742 -13.902 6.21283 0.75818 2.12037 -5.67832 -8.00438 
-217.608 97.7498 -168.302 3.16258 1.57166 -150.206 0 0 0 -7.61317 0.499564 -11.708 17.2243 3.32949 -15.1466 12.8185 -13.4735 22.9382 -9.10148 9.81249 26.2398 7.10556 0.271047 -8.6169 -26.0767 -9.20087 -61.0026 25.0016 -0.589188 -91.2632 -12.296 0.779004 -7.2225 16.9766 -0.253173 -4.57305 36.6546 7.88837 -50.3107 -10.8144 5.31838 64.1158 4.95287 0.42046 9.69867 0.394939 2.36768 -2.45725 -1.88032e-007 47.1249 -17.7547 11.2491 -6.09205 0.600525 1.46192 -16.9129 -3.4255 2.07787 -25.7573 5.64478 -2.47495 14.6267 25.1396 -16.7461 3.56534 0.524936 3.01444 -10.2903 -7.77541 
